<?xml version="1.0" encoding="UTF-8" standalone="no"?>
<svg width="229px" height="204px" viewBox="0 0 229 204" version="1.1" xmlns="http://www.w3.org/2000/svg" xmlns:xlink="http://www.w3.org/1999/xlink">
    <title>Logo Redradix</title>
    <desc>Created by Redradix.</desc>
    <defs></defs>
    <g id="Page-1" stroke="none" stroke-width="1" fill="none" fill-rule="evenodd">
        <g id="logo_v_red">
            <g id="logo">
                <rect id="Rectangle-11" fill="#A50000" x="0" y="0" width="229" height="204"></rect>
                <path d="M93.3154034,129 L113.559902,96.7634961 L114.146699,96.7634961 L134.391198,129 L161.090465,109.365039 L136.444988,80.3521851 L136.444988,79.7660668 L174,70.3881748 L163.437653,39.0308483 L127.93643,53.3907455 L130.577017,15 L96.8361858,15 L99.4767726,53.3907455 L63.9755501,39.0308483 L54,70.6812339 L90.9682152,79.7660668 L90.9682152,80.3521851 L66.6161369,109.658098 L93.3154034,129 Z" id="icon" fill="#FFFFFF" ></path>
                <path d="M27.8939084,186.085826 L27.8939084,179.782835 L25.5084122,179.782835 L25.5084122,174.827048 C25.5084122,170.592978 27.9416183,169.486346 32.2355115,169.486346 L32.2355115,160.825748 C27.3213893,160.825748 26.0809313,162.79844 24.8404733,165.107932 L23.4091756,162.028609 L14.4397099,162.028609 L14.4397099,168.283485 L16.4912366,168.283485 L16.4912366,179.782835 L14.392,179.782835 L14.392,186.085826 L27.8939084,186.085826 Z M54.0866565,178.09883 C51.5103206,180.263979 49.0294046,180.408322 47.4072672,180.408322 C43.3996336,180.408322 42.7794046,177.762029 42.493145,176.462939 L57.521771,176.462939 C58.5236794,173.720416 57.9988702,170.015605 57.4263511,168.331599 C56.0427634,164.289987 51.7011603,161.355007 46.0236794,161.355007 C38.8194809,161.355007 33.1897099,166.022107 33.1897099,173.912874 C33.1897099,183.150845 39.8690992,186.951886 45.7851298,186.951886 C50.7469618,186.951886 54.5637557,185.845254 58.0942901,182.76593 L54.0866565,178.09883 Z M42.6362748,171.69961 C42.7316947,170.496749 43.3996336,167.850455 46.3099389,167.850455 C49.363374,167.850455 49.7927634,169.871261 49.8404733,171.69961 L42.6362748,171.69961 Z M76.3671908,156.254876 L76.3671908,163.375813 C75.4607023,162.79844 73.743145,161.547464 70.3557405,161.547464 C64.4874198,161.547464 59.2870382,166.310793 59.2870382,173.816645 C59.2870382,180.504551 63.6286412,186.518856 70.3557405,186.518856 C73.6477252,186.518856 75.7469618,184.882965 76.3671908,184.305592 L77.1782595,186.085826 L88.3423817,186.085826 L88.3423817,179.830949 L86.0523053,179.830949 L86.0523053,150 L74.1725344,150 L74.1725344,156.254876 L76.3671908,156.254876 Z M69.5446718,173.816645 C69.5446718,170.159948 70.9282595,167.802341 72.9320763,167.802341 C74.7450534,167.802341 76.3671908,170.304291 76.3671908,173.576073 C76.5580305,177.377113 74.8404733,179.73472 72.9797863,179.73472 C70.8805496,179.73472 69.5446718,176.703511 69.5446718,173.816645 L69.5446718,173.816645 Z M103.752687,186.085826 L103.752687,179.782835 L101.367191,179.782835 L101.367191,174.827048 C101.367191,170.592978 103.800397,169.486346 108.09429,169.486346 L108.09429,160.825748 C103.180168,160.825748 101.93971,162.79844 100.699252,165.107932 L99.2679542,162.028609 L90.2984885,162.028609 L90.2984885,168.283485 L92.3500153,168.283485 L92.3500153,179.782835 L90.2507786,179.782835 L90.2507786,186.085826 L103.752687,186.085826 Z M112.531313,169.630689 C114.34429,168.620286 116.825206,167.417425 119.640092,167.417425 C122.216427,167.417425 124.172534,167.946684 124.172534,170.111834 L124.172534,171.795839 C123.933985,171.507152 122.264137,170.111834 119.449252,170.111834 C114.058031,170.111834 109.525588,173.527958 109.525588,178.964889 C109.525588,184.546164 114.392,187 118.924443,187 C120.642,187 123.600015,186.374512 125.365282,183.920676 L126.510321,186.085826 L136.720244,186.085826 L136.720244,179.927178 L133.857649,179.927178 L133.857649,170.544863 C133.857649,162.79844 126.65345,160.63329 120.92826,160.63329 C116.538947,160.63329 112.435893,162.894668 110.527496,164.049415 L112.531313,169.630689 Z M124.172534,179.157347 C123.743145,179.879064 122.550397,180.745124 121.119099,180.745124 C119.687802,180.745124 118.590473,179.830949 118.590473,178.483745 C118.590473,176.992198 119.449252,175.93368 121.357649,175.93368 C123.361466,175.93368 124.029405,177.088427 124.172534,177.328999 L124.172534,179.157347 Z M154.993145,156.254876 L154.993145,163.375813 C154.086656,162.79844 152.369099,161.547464 148.981695,161.547464 C143.113374,161.547464 137.912992,166.310793 137.912992,173.816645 C137.912992,180.504551 142.254595,186.518856 148.981695,186.518856 C152.273679,186.518856 154.372916,184.882965 154.993145,184.305592 L155.804214,186.085826 L166.968336,186.085826 L166.968336,179.830949 L164.67826,179.830949 L164.67826,150 L152.798489,150 L152.798489,156.254876 L154.993145,156.254876 Z M148.170626,173.816645 C148.170626,170.159948 149.554214,167.802341 151.558031,167.802341 C153.371008,167.802341 154.993145,170.304291 154.993145,173.576073 C155.183985,177.377113 153.466427,179.73472 151.60574,179.73472 C149.506504,179.73472 148.170626,176.703511 148.170626,173.816645 L148.170626,173.816645 Z M170.212611,155.003901 C170.212611,157.313394 172.359557,159.863459 175.365282,159.863459 C178.752687,159.863459 180.613374,157.650195 180.613374,155.003901 C180.613374,152.790637 178.657267,150.096229 175.365282,150.096229 C172.025588,150.096229 170.212611,152.790637 170.212611,155.003901 L170.212611,155.003901 Z M182.235511,186.085826 L182.235511,179.782835 L179.945435,179.782835 L179.945435,162.028609 L168.876733,162.028609 L168.876733,168.283485 L170.88055,168.283485 L170.88055,179.782835 L168.876733,179.782835 L168.876733,186.085826 L182.235511,186.085826 Z M201.319481,162.028609 L201.319481,168.042913 L204.516046,168.042913 L200.937802,171.69961 L197.598107,168.042913 L199.840473,168.042913 L199.840473,162.028609 L184.382458,162.028609 L184.382458,168.042913 L186.529405,168.042913 L192.445435,174.586476 L187.579023,180.119636 L184.382458,180.119636 L184.382458,186.085826 L196.596198,186.085826 L196.596198,180.119636 L193.495053,180.119636 L196.930168,176.222367 L200.556122,180.119636 L198.313756,180.119636 L198.313756,186.085826 L213.533221,186.085826 L213.533221,180.119636 L211.290855,180.119636 L205.279405,173.191157 L210.336656,168.042913 L213.485511,168.042913 L213.485511,162.028609 L201.319481,162.028609 Z" id="redradix" fill="#FFFFFF"></path>
            </g>
        </g>
    </g>
</svg>